<?xml version="1.0" standalone="no"?>
<!DOCTYPE svg PUBLIC "-//W3C//DTD SVG 20010904//EN"
 "http://www.w3.org/TR/2001/REC-SVG-20010904/DTD/svg10.dtd">
<svg version="1.0" xmlns="http://www.w3.org/2000/svg"
 width="500.000000pt" height="500.000000pt" viewBox="0 0 500.000000 500.000000"
 preserveAspectRatio="xMidYMid meet">
<metadata>
Created by potrace 1.16, written by Peter Selinger 2001-2019
</metadata>
<g transform="translate(0.000000,500.000000) scale(0.100000,-0.100000)"
fill="#69ecf5" stroke="none">
<path d="M3120 4100 c-108 -23 -165 -63 -355 -252 -175 -174 -179 -179 -140
-171 60 12 156 7 195 -9 l35 -15 105 101 c118 114 155 136 231 136 65 0 124
-32 163 -88 42 -62 50 -103 31 -170 -16 -54 -27 -67 -253 -293 -256 -255 -276
-269 -362 -254 -82 14 -173 99 -189 175 l-6 31 -80 -81 -80 -80 24 -46 c13
-24 52 -70 85 -101 34 -31 52 -53 41 -48 -52 22 -82 15 -274 -55 -106 -39
-196 -69 -199 -66 -10 11 18 83 46 117 15 19 124 129 242 245 229 225 255 243
328 229 85 -16 172 -91 192 -166 l10 -36 79 81 80 81 -22 39 c-33 61 -122 142
-190 176 -120 59 -258 48 -382 -31 -65 -40 -475 -448 -522 -517 -48 -73 -74
-152 -76 -235 l-2 -70 -350 -127 c-192 -70 -354 -132 -358 -136 -24 -26 -337
-491 -337 -501 0 -6 19 -19 42 -27 24 -9 97 -36 163 -60 l120 -44 3 -356 c2
-339 3 -356 21 -366 11 -5 289 -108 618 -229 329 -120 622 -228 651 -239 l52
-20 666 244 c367 134 668 244 670 244 2 0 4 162 4 359 l0 359 163 60 c108 40
163 65 165 76 3 12 -178 287 -323 491 -8 12 -766 297 -1019 383 -63 21 -73 28
-50 29 66 6 143 27 199 55 47 24 107 76 279 247 120 119 238 242 262 274 61
82 87 155 88 252 1 70 -3 88 -31 148 -43 90 -138 187 -225 227 -71 33 -158 44
-228 30z m-667 -1432 c-61 -63 -166 -86 -239 -52 -38 18 -109 93 -117 123 -4
17 20 28 187 89 l191 69 3 -100 c3 -97 2 -101 -25 -129z m1279 -219 c-4 -4
-276 -106 -604 -226 l-598 -220 1 231 1 231 162 157 162 157 442 -162 c242
-89 438 -165 434 -168z m-1828 207 c9 -35 90 -135 149 -184 103 -85 248 -110
366 -64 30 12 56 20 58 18 2 -2 2 -98 1 -213 l-3 -210 -602 221 c-332 122
-603 224 -603 227 0 6 597 228 616 228 7 1 14 -10 18 -23z m574 -1675 l-3
-299 -632 232 -633 231 0 333 c0 182 1 332 3 332 1 0 218 -79 481 -175 263
-96 482 -173 486 -170 5 3 73 99 152 213 l143 207 3 -303 c1 -166 1 -436 0
-601z m197 694 c75 -110 141 -204 145 -209 5 -4 224 71 489 168 264 97 483
176 486 176 3 0 4 -150 3 -332 l-3 -333 -215 -78 c-118 -44 -403 -148 -632
-232 l-418 -153 0 601 c0 330 2 598 4 596 2 -2 65 -94 141 -204z"/>
<path d="M2081 1207 c-12 -12 -16 -275 -3 -293 12 -19 292 -118 303 -107 6 6
8 71 7 158 l-3 148 -35 13 c-19 6 -85 30 -146 52 -83 30 -114 38 -123 29z"/>
<path d="M3625 1444 c-49 -19 -109 -41 -132 -50 l-43 -16 0 -155 0 -155 28 5
c15 3 84 27 155 52 l127 47 0 154 c0 181 10 173 -135 118z"/>
</g>
</svg>
