<?xml version="1.0" standalone="no"?>
<!DOCTYPE svg PUBLIC "-//W3C//DTD SVG 20010904//EN"
 "http://www.w3.org/TR/2001/REC-SVG-20010904/DTD/svg10.dtd">
<svg version="1.0" xmlns="http://www.w3.org/2000/svg"
 width="500.000000pt" height="500.000000pt" viewBox="0 0 500.000000 500.000000"
 preserveAspectRatio="xMidYMid meet">
<metadata>
Created by potrace 1.16, written by Peter Selinger 2001-2019
</metadata>
<g transform="translate(0.000000,500.000000) scale(0.100000,-0.100000)"
fill="#000000" stroke="none">
<path d="M1988 3991 c-72 -23 -112 -49 -165 -103 -51 -53 -88 -122 -103 -192
-11 -53 -12 -54 -74 -85 -81 -39 -150 -101 -198 -175 l-37 -58 -73 -2 c-112
-4 -190 -51 -243 -148 -26 -46 -30 -63 -30 -128 0 -83 19 -129 77 -196 31 -35
32 -39 33 -128 0 -82 3 -98 32 -156 l32 -64 -31 -35 c-133 -151 -87 -388 92
-479 36 -18 89 -35 118 -39 52 -6 52 -6 85 -67 145 -274 518 -365 779 -190 48
33 53 34 87 23 84 -29 199 -8 281 51 l29 20 58 -29 c80 -41 136 -54 223 -54
84 0 139 13 218 50 l54 25 31 -30 c48 -47 139 -84 217 -90 304 -21 492 321
314 571 l-34 47 47 58 c54 66 96 151 119 241 24 95 16 243 -19 341 -48 136
-163 272 -279 331 -35 18 -39 24 -34 47 4 15 9 63 12 107 11 151 -42 292 -151
400 -202 200 -512 207 -727 15 -53 -48 -56 -49 -119 -48 -36 0 -80 -7 -101
-15 l-37 -16 -21 34 c-35 57 -126 132 -188 156 -80 31 -199 35 -274 10z m274
-66 c67 -34 112 -76 150 -142 16 -29 36 -53 44 -53 8 0 34 10 57 21 35 18 53
21 113 16 l71 -5 41 43 c228 243 625 188 770 -107 48 -99 60 -192 37 -309 -10
-54 -14 -94 -8 -96 5 -2 38 -20 73 -41 311 -183 372 -592 129 -865 l-50 -57
39 -47 c68 -82 77 -107 77 -213 0 -80 -4 -102 -23 -138 -99 -186 -334 -227
-490 -86 -28 24 -53 44 -57 44 -4 0 -41 -17 -83 -38 -75 -36 -78 -37 -191 -37
-107 0 -121 2 -178 29 -35 16 -68 35 -74 42 -18 22 -52 16 -79 -13 -56 -59
-184 -82 -267 -48 -36 15 -36 15 -102 -29 -203 -137 -465 -113 -631 58 -49 51
-96 120 -110 162 -10 30 -14 32 -73 36 -159 13 -261 115 -261 263 0 59 4 79
29 124 16 30 42 63 57 74 35 26 35 35 -2 94 -41 66 -57 156 -42 224 l12 52
-49 47 c-37 35 -53 61 -65 101 -20 65 -20 73 -1 136 32 107 147 177 256 156
26 -6 52 -7 57 -4 5 3 22 31 37 61 36 71 119 151 192 185 32 15 65 30 73 34 8
5 20 35 27 70 28 139 112 233 246 277 66 22 183 12 249 -21z"/>
<path d="M2425 3116 c-133 -42 -195 -122 -214 -272 -17 -134 11 -258 74 -332
62 -73 211 -115 330 -94 85 16 128 35 177 80 76 68 110 206 88 357 -21 141
-82 219 -201 256 -70 22 -193 24 -254 5z m257 -15 c101 -31 173 -129 185 -252
27 -253 -59 -394 -255 -418 -204 -25 -349 57 -382 216 -19 89 -9 247 20 311
48 109 158 165 310 158 47 -2 102 -9 122 -15z"/>
<path d="M2520 2968 c-13 -5 -28 -14 -32 -21 -4 -7 -8 -84 -8 -172 0 -184 7
-205 65 -205 58 0 65 21 65 205 0 88 -4 165 -8 172 -13 20 -55 31 -82 21z m68
-20 c8 -8 12 -61 12 -174 0 -176 -5 -194 -55 -194 -49 0 -55 19 -55 186 0 88
4 164 10 175 12 22 68 27 88 7z"/>
<path d="M3084 3112 c-28 -10 -63 -26 -78 -35 -41 -27 -68 -92 -69 -162 -1
-115 49 -172 205 -235 70 -28 94 -42 96 -57 2 -15 -4 -22 -23 -27 -32 -8 -65
9 -65 34 0 19 -7 20 -105 20 l-105 0 0 -95 0 -94 53 -16 c202 -60 401 -37 481
56 73 86 60 245 -26 309 -18 14 -76 41 -128 60 -76 29 -96 40 -98 58 -3 19 1
22 33 22 28 0 38 -5 42 -20 5 -18 14 -20 99 -20 l94 0 0 84 0 85 -57 22 c-83
31 -276 38 -349 11z m339 -22 l57 -21 0 -75 0 -74 -78 0 c-66 0 -82 3 -97 20
-21 24 -77 27 -94 6 -23 -28 4 -53 87 -80 110 -37 169 -76 192 -129 56 -122
-4 -257 -129 -294 -90 -26 -298 -16 -387 17 -23 9 -24 14 -24 90 l0 80 95 0
c77 0 95 -3 95 -15 0 -36 83 -46 104 -12 18 29 -5 50 -101 88 -153 61 -193
107 -193 218 0 117 49 177 163 201 74 16 245 5 310 -20z"/>
<path d="M1480 3005 l0 -115 85 0 85 0 0 35 c0 28 4 35 20 35 19 0 20 -7 20
-190 l0 -190 -30 0 -30 0 0 -80 0 -80 190 0 190 0 0 80 0 80 -30 0 -30 0 0
190 c0 183 1 190 20 190 16 0 20 -7 20 -35 l0 -35 80 0 80 0 0 115 0 115 -335
0 -335 0 0 -115z m660 5 l0 -100 -70 0 -70 0 0 35 c0 33 -2 35 -35 35 l-35 0
0 -205 0 -205 35 0 35 0 0 -65 0 -65 -180 0 -180 0 0 65 0 65 30 0 30 0 0 205
0 205 -35 0 c-33 0 -35 -2 -35 -35 l0 -35 -70 0 -70 0 0 100 0 100 325 0 325
0 0 -100z"/>
<path d="M3082 1725 c-121 -61 -165 -196 -104 -316 86 -171 315 -179 417 -14
26 42 30 58 30 120 0 62 -4 78 -30 121 -66 106 -202 145 -313 89z m181 -39
c70 -29 126 -129 112 -199 -27 -128 -155 -192 -271 -137 -117 57 -135 223 -34
308 48 41 133 54 193 28z"/>
<path d="M3487 1366 c-47 -17 -71 -38 -91 -81 -33 -69 -13 -153 48 -200 117
-89 289 16 262 161 -9 47 -68 111 -114 124 -47 13 -58 12 -105 -4z m123 -65
c32 -23 50 -76 39 -115 -27 -95 -150 -114 -200 -32 -43 70 -13 141 71 170 22
7 62 -3 90 -23z"/>
<path d="M3758 1140 c-26 -27 -30 -36 -25 -68 8 -49 38 -72 92 -72 35 0 48 5
64 26 71 90 -50 194 -131 114z"/>
</g>
</svg>
